<svg width="519" height="516" viewBox="0 0 519 516" fill="none" xmlns="http://www.w3.org/2000/svg">
<path d="M233.099 4.71576e-05C221.22 -0.00749438 209.358 0.889518 197.616 2.68325C186.179 4.43307 174.888 7.02885 163.838 10.449C87.2099 34.2108 27.4793 96.3166 7.34467 174.202V174.222C5.41813 181.685 3.86567 189.238 2.69303 196.854V196.875C2.10251 200.717 1.60524 204.584 1.2012 208.474V208.485C-0.0142433 220.326 -0.31384 232.243 0.305055 244.13V244.14C0.50351 248.072 0.80232 251.999 1.2012 255.915V255.926C1.60178 259.82 2.09906 263.686 2.69303 267.525V267.546C3.86567 275.162 5.41813 282.715 7.34467 290.178V290.198C27.4793 368.083 87.2099 430.189 163.832 453.951C167.479 455.079 171.16 456.123 174.876 457.083H174.897C178.609 458.036 182.36 458.899 186.148 459.673H186.163C189.952 460.451 193.769 461.132 197.616 461.717H197.637C201.495 462.305 205.376 462.8 209.282 463.203H209.292C221.178 464.413 233.139 464.712 245.07 464.096C251.069 463.796 256.984 463.193 262.853 462.444C264.739 462.207 266.635 462.016 268.51 461.727L268.562 461.717C280.006 459.968 291.304 457.372 302.361 453.951C331.289 444.946 358.171 430.395 381.496 411.118C360.522 419.57 337.647 423.105 315.078 421.696C289.196 432.842 261.297 438.595 233.099 438.6C206.951 438.612 181.037 433.694 156.726 424.106C158.43 422.485 160.341 421.144 162.765 420.447C192.98 427.723 179.834 390.493 200.351 382.072C214.094 356.974 170.214 352.97 154.55 343.837C128.059 339.848 130.541 307.737 106.48 300.792C86.78 297.66 93.9336 269.378 79.4917 270.89C67.0235 273.196 62.0766 256.117 55.1302 257.334C53.4519 259.099 46.4278 245.869 38.8805 260.451C20.8179 256.468 28.707 238.377 26.0911 224.63C26.8782 202.325 31.2919 180.295 39.1602 159.398C43.5736 163.371 41.4705 176.064 42.2009 184.671C50.7997 188.34 46.7593 152.282 64.6251 151.441C76.7774 137.813 90.8774 126.208 105.651 116.828C111.416 120.919 123.807 120.424 133.529 111.332C122.698 109.165 121.926 100.924 136.404 97.6892C159.445 87.8232 126.013 108.499 144.822 111.482C165.241 117.478 147.92 93.7934 157.601 84.5363C147.469 77.6632 163.729 50.9344 146.008 62.8076C152.136 58.4422 142.605 50.2533 148.08 47.0541C150.344 53.3699 161.735 62.0439 165.785 47.4772C173.814 48.8446 175.405 41.0582 177.782 33.2666C183.59 31.6758 189.464 30.3381 195.389 29.2572C193.4 36.7238 186.2 48.2564 185.614 55.728C194.907 82.7148 210.592 45.3255 227.117 44.4018C241.387 44.8869 244.299 35.3718 244.708 26.1406C263.812 27.1881 282.206 30.8362 299.574 36.6722C301.056 49.9282 306.795 70.8417 321.356 66.2235C318.321 66.8943 331.022 79.4021 324.454 81.4971C320.963 104.903 301.905 65.8932 292.239 66.4041C277.792 68.8293 294.985 75.9501 289.769 79.4382C276.093 91.136 301.605 103.412 299.543 83.7468C301.216 99.6035 306.614 99.1082 319.517 98.2826C294.042 102.565 324.801 111.647 324.008 120.171C332.345 120.147 340.67 120.79 348.904 122.096C350.805 120.672 353.224 119.97 356.451 120.362C356.186 121.321 356.038 122.309 356.01 123.303C357.92 123.699 359.821 124.129 361.714 124.593C362.377 123.752 365.366 124.712 368.603 126.461L368.738 126.503C374.177 128.066 379.491 129.996 384.692 132.194C385.469 129.98 386.878 129.191 389.924 132.013C390.908 133.716 391.918 134.996 392.928 135.976C394.519 136.771 396.078 137.628 397.642 138.484C402.356 139.186 406.448 135.089 407.743 134.784C410.167 134.114 413.203 134.31 415.876 134.815C418.359 139.466 420.667 144.217 422.801 149.067C421.113 149.759 419.061 150.342 416.953 150.94C438.295 167.215 455.347 189.104 465.464 213.928C463.821 192.801 459.263 172 451.918 152.112C451.442 150.817 450.903 149.552 450.4 148.267C449.535 146.049 448.681 143.825 447.753 141.637C446.93 139.717 446.029 137.839 445.163 135.945C444.475 134.449 443.832 132.937 443.117 131.456C442.118 129.397 441.04 127.385 439.978 125.362C439.295 124.052 438.657 122.715 437.948 121.42C436.183 118.193 434.342 115.009 432.426 111.869C401.263 60.7849 350.887 22.6008 291.307 7.31693L291.24 7.29629C283.762 5.38547 276.193 3.84589 268.562 2.68325L268.52 2.67293C264.662 2.08423 260.79 1.59215 256.907 1.19717H256.876C252.95 0.801903 249.016 0.505968 245.076 0.309647C241.089 0.106566 237.092 0.00333318 233.099 4.71576e-05ZM154.488 41.1717C152.452 43.1634 149.24 45.2378 145.506 45.857C139.823 50.5784 139.88 49.3142 141.75 46.8632C145.932 44.8239 150.182 42.9257 154.493 41.1717M319.041 44.3451C319.728 44.6478 320.412 44.9574 321.092 45.2739C321.025 45.9705 319.89 45.2223 319.041 44.3451ZM248.639 46.0066C244.47 46.182 241.377 47.9313 243.076 52.4463C245.511 54.7838 249.059 55.3514 252.297 55.3668C272.198 52.9055 257.808 45.6248 248.639 46.0066ZM319.155 49.6341C320.035 49.7166 322.107 50.4958 325.941 52.4256C333.705 62.178 315.332 49.2832 319.155 49.6341ZM134.136 50.759C133.374 56.631 127.464 65.3979 121.367 66.0274C116.498 65.5785 113.172 73.2204 109.406 75.723C109.251 76.4454 109.354 71.5538 110.494 65.7539C118.026 60.2298 125.924 55.22 134.136 50.759ZM280.823 56.7962C280.569 56.9045 280.357 57.3741 280.284 58.3958C283.936 62.4773 281.921 56.3163 280.823 56.7962ZM294.912 60.1708C294.617 60.0882 294.591 60.7384 295.187 62.7714C299.108 67.2142 295.803 60.4133 294.912 60.1708ZM334.835 60.2121C338.041 60.1966 347.013 65.7591 345.205 71.8221C336.539 78.7984 340.543 75.0729 338.849 67.3484C333.048 62.2348 332.908 60.2224 334.835 60.2121ZM83.5218 89.3454C83.9413 89.7737 84.3868 90.2949 84.9307 91.1102C83.0659 96.8171 81.4653 94.5364 81.0716 91.91C81.8831 91.05 82.6999 90.1951 83.5218 89.3454ZM125.438 93.9121C126.008 93.9224 126.956 94.3764 128.339 95.6768C125.314 97.9472 123.713 93.8914 125.438 93.9121ZM390.116 97.4931C393.793 101.735 397.296 106.125 400.615 110.651C397.699 115.729 390.623 102.483 390.116 97.4931ZM82.4909 99.9389C82.7914 99.8718 83.1125 100.063 83.4389 100.615C79.0929 113.37 80.3671 100.403 82.4909 99.9389ZM364.464 113.056C364.615 113.025 364.771 113.029 364.92 113.066C367.531 113.499 377.818 119.33 381.921 123.386C384.428 128.985 373.685 119.01 371.509 119.655C365.423 115.135 363.739 113.278 364.464 113.056ZM77.1296 113.159C77.658 113.262 78.0724 113.809 78.1915 115.063C70.3231 120.507 74.8245 112.7 77.1296 113.159ZM395.902 123.53C396.3 123.36 397.461 124.005 399.844 126.245C400.268 131.921 394.69 124.046 395.902 123.53ZM407.386 138.959C406.427 139.088 405.448 140.146 404.723 142.591C405.638 143.156 406.548 143.727 407.453 144.305C412.457 145.146 410.105 138.603 407.386 138.959ZM50.4526 180.93C50.0279 180.93 49.7792 181.988 50.0279 185.007C54.5759 190.404 51.7321 180.915 50.4526 180.93ZM47.9248 188.598C47.5 188.526 46.8629 189.775 46.0082 193.526C48.5775 200.961 49.2043 188.81 47.9248 188.598ZM325.298 190.162C320.489 190.149 315.689 190.58 310.96 191.452C303.983 203.985 294.343 215.188 289.815 230.482C288.468 243.583 292.83 261.695 291.001 275.823C295.249 293.945 312.467 304.321 327.469 313.191C338.761 320.436 350.53 306.561 362.682 306.401C373.312 290.828 390.333 302.237 399.942 301.086C398.317 303.564 397.232 306.353 396.756 309.275C408.525 287.139 409.504 259.398 398.507 236.72C385.671 208.975 356.016 189.95 325.298 190.162ZM34.9075 192.52C25.8528 191.586 42.5013 207.499 43.1592 214.517C59.9165 219.021 40.8127 224.114 54.9851 229.806C76.3267 237.458 63.1385 220.363 54.0838 216.766C57.6373 211.09 45.081 206.901 40.4656 194.021C38.0051 193.123 36.2025 192.649 34.9075 192.52ZM299.238 196.065C298.279 196.065 297.217 197.834 296.772 203.098C303.029 204.594 301.356 196.065 299.238 196.065ZM52.5091 199.862C52.4502 199.842 52.3875 199.835 52.3257 199.842C52.2638 199.849 52.2043 199.87 52.1517 199.904C51.6648 200.218 51.6337 201.735 52.9908 205.033L54.0476 205.729C54.9178 202.644 53.4363 200.105 52.5091 199.862ZM285.832 200.368C283.939 201.403 282.092 202.509 280.289 203.686C280.419 204.068 280.471 204.408 280.755 204.873L281.569 205.255H286.215C298.243 204.857 291.706 201.116 285.832 200.368ZM39.5384 217.174C38.3107 216.916 38.1398 218.32 41.0768 223.263C50.0434 226.364 42.2372 217.742 39.5384 217.174ZM70.2817 230.255C69.1628 230.394 68.1631 231.586 67.8989 234.661C78.1656 238.841 73.6487 229.837 70.2817 230.255ZM86.6453 247.185C86.1895 247.009 85.7233 249.042 85.4176 255.147L85.5989 258.516C89.2405 268.191 88.0025 247.721 86.6453 247.185ZM250.168 260.807C249.007 260.688 248.997 261.586 252.219 264.641C260.833 266.344 252.721 261.081 250.168 260.807ZM31.8979 262.36C32.3537 262.479 32.7008 263.475 32.9391 266.318C33.8715 272.51 33.4312 278.743 32.737 284.987C30.9569 278.234 29.5219 271.395 28.4376 264.496C29.8777 264.796 31.0639 262.138 31.8979 262.36ZM262.693 263.681C262.159 263.686 261.455 264.079 260.579 265.08C264.154 270.673 265.008 263.64 262.693 263.681ZM260.621 269.796C259.797 269.93 258.642 270.467 257.088 271.643C261.372 276.246 264.179 269.223 260.621 269.796ZM254.591 270.694C254.156 270.647 253.493 271.287 252.592 273.222C255.156 277.154 255.907 270.833 254.591 270.694ZM390.825 313.934C390.385 313.893 389.722 314.528 388.815 316.468C391.385 320.4 392.131 314.079 390.82 313.94" fill="black"/>
<path d="M342.93 141.874C309.664 137.385 274.684 145.497 245.961 167.287C188.514 210.858 177.341 293.016 221.086 350.24C262.034 403.801 336.808 416.716 393.321 382.423L404.111 396.541C403.061 398.975 402.566 401.386 402.661 403.608C402.756 405.83 403.438 407.81 404.66 409.41L482.982 511.862C485.221 514.79 489.127 516.264 493.84 515.96C498.553 515.656 503.688 513.599 508.115 510.242C510.308 508.579 512.262 506.646 513.863 504.554C515.465 502.463 516.685 500.253 517.451 498.051C518.218 495.849 518.517 493.699 518.332 491.722C518.147 489.746 517.481 487.982 516.372 486.531L438.051 384.079C436.827 382.481 435.092 381.3 432.967 380.618C430.842 379.937 428.377 379.771 425.743 380.132L414.948 366.009C463.174 320.859 470.565 245.626 429.623 192.066C407.748 163.448 376.196 146.363 342.93 141.874ZM339.045 170.445C352.32 172.231 365.109 176.613 376.677 183.34C388.245 190.067 398.364 199.005 406.453 209.641C414.59 220.238 420.546 232.333 423.979 245.229C427.412 258.126 428.253 271.571 426.456 284.793C424.658 298.015 420.256 310.753 413.503 322.275C406.751 333.798 397.78 343.878 387.105 351.938C376.467 360.043 364.326 365.976 351.38 369.395C338.433 372.814 324.937 373.652 311.664 371.861C298.392 370.07 285.605 365.686 274.039 358.96C262.472 352.233 252.352 343.298 244.262 332.665C236.125 322.068 230.169 309.974 226.736 297.078C223.304 284.182 222.462 270.738 224.259 257.517C226.056 244.296 230.457 231.558 237.209 220.036C243.961 208.514 252.931 198.433 263.604 190.373C274.237 182.258 286.378 176.319 299.325 172.899C312.273 169.479 325.772 168.645 339.045 170.445Z" fill="#575656"/>
</svg>
